<svg version="1.1" id="Layer_1" xmlns="http://www.w3.org/2000/svg" xmlns:xlink="http://www.w3.org/1999/xlink" x="0px" y="0px"
	 width="100%" viewBox="0 0 1001 1001" enable-background="new 0 0 1001 1001" xml:space="preserve">
<path fill="#010101" opacity="1.000000" stroke="none" 
	d="
M1002.000000,270.000000 
	C1002.000000,514.333313 1002.000000,758.166687 1002.000000,1002.000000 
	C668.333313,1002.000000 334.666656,1002.000000 1.000000,1002.000000 
	C1.000000,668.333313 1.000000,334.666656 1.000000,1.000000 
	C334.666656,1.000000 668.333313,1.000000 1002.000000,1.000000 
	C1002.000000,90.500000 1002.000000,180.000000 1002.000000,270.000000 
M852.542908,955.498108 
	C852.541565,689.865540 852.543762,424.232941 852.527832,158.600372 
	C852.527100,146.360641 850.990906,134.337463 847.955872,122.428459 
	C839.871582,90.706886 821.965637,65.347694 796.497253,45.667973 
	C783.036865,35.266987 767.436951,28.065758 750.605286,23.621958 
	C738.253296,20.360861 725.864319,18.928864 713.255981,18.924583 
	C536.611755,18.864603 359.967560,18.872374 183.323380,18.927612 
	C176.176041,18.929846 169.028778,19.560690 161.881744,19.904213 
	C159.005585,20.042456 155.989182,19.691971 153.284164,20.448753 
	C147.932846,21.945894 142.667450,23.849089 137.523499,25.965843 
	C129.538681,29.251631 121.693985,32.876827 113.769028,36.310009 
	C111.992958,37.079426 109.789444,37.230213 108.368294,38.385891 
	C102.793465,42.919338 97.270126,47.548157 92.059135,52.491009 
	C75.806755,67.907104 65.324615,86.596680 64.760933,109.177223 
	C63.937771,142.152420 64.500633,175.161911 64.444778,208.156754 
	C64.432945,215.145447 72.346039,223.342697 79.892944,223.205795 
	C105.047897,222.749435 130.216583,223.045746 155.380005,223.071533 
	C157.099991,223.073303 158.819794,223.222855 160.521530,223.302811 
	C160.372375,225.884094 160.159454,227.849274 160.159332,229.814453 
	C160.143860,475.283356 160.136917,720.752258 160.229050,966.221069 
	C160.230148,969.147278 161.215424,972.186401 162.259109,974.979309 
	C166.855896,987.280273 180.687790,987.790161 188.339371,979.618896 
	C196.642197,970.752075 205.498291,962.406128 213.984726,953.707703 
	C219.637497,947.913757 225.065399,941.900452 231.200958,935.335815 
	C236.250671,940.670227 240.145035,944.958984 244.226425,949.061707 
	C254.757614,959.648010 265.311920,970.212769 275.975800,980.664917 
	C281.953857,986.524170 292.834839,986.620117 298.018219,981.089294 
	C304.070831,974.631042 310.078613,968.130554 316.166473,961.705750 
	C318.024750,959.744568 320.117279,958.007568 322.043274,956.107849 
	C328.549683,949.690247 335.029541,943.245605 341.641602,936.690247 
	C342.840729,937.714966 343.768921,938.406433 344.579407,939.215820 
	C358.132843,952.752380 371.691376,966.283997 385.205322,979.859863 
	C392.073486,986.759460 400.830872,987.044067 407.755432,980.316406 
	C413.473389,974.760925 419.074554,969.083313 424.657471,963.391235 
	C433.462585,954.414062 442.208954,945.379272 451.242004,936.099854 
	C453.537689,938.282532 455.106140,939.715942 456.610870,941.213440 
	C469.710754,954.250732 482.764435,967.334961 495.934265,980.301147 
	C497.609863,981.950867 499.710754,983.455322 501.897064,984.244812 
	C507.990753,986.445251 513.321167,984.737488 517.845154,980.211731 
	C531.150757,966.900940 544.462646,953.596497 557.788025,940.305542 
	C559.033203,939.063721 560.390808,937.934509 562.125854,936.364075 
	C568.778870,943.391846 574.950623,950.146729 581.382324,956.644348 
	C589.027222,964.367493 596.902161,971.862732 604.665039,979.469360 
	C612.653198,987.296692 621.554993,986.967529 628.550781,980.228821 
	C641.128906,968.112793 653.094177,955.361572 665.357727,942.917358 
	C667.476074,940.767822 669.803101,938.823975 672.982910,935.917542 
	C674.242493,937.689697 675.126038,939.376465 676.408142,940.667664 
	C688.966614,953.315430 701.584473,965.904297 714.199890,978.495483 
	C723.159973,987.438171 730.647949,987.548462 739.526367,978.755554 
	C749.347351,969.029114 759.073853,959.207520 768.860352,949.446228 
	C773.169312,945.148254 777.524841,940.896973 782.623291,935.871338 
	C784.164612,937.822327 785.167725,939.381470 786.446472,940.666199 
	C799.573120,953.853699 812.762817,966.978394 825.894592,980.160645 
	C831.234375,985.521057 837.289978,986.519226 844.075195,983.382690 
	C849.973938,980.655945 852.117737,975.505798 852.484558,969.491882 
	C852.747803,965.175049 852.540405,960.829468 852.542908,955.498108 
z"/>
<path fill="#F9F9F9" opacity="1.000000" stroke="none" 
	d="
M852.542908,955.997437 
	C852.540405,960.829468 852.747803,965.175049 852.484558,969.491882 
	C852.117737,975.505798 849.973938,980.655945 844.075195,983.382690 
	C837.289978,986.519226 831.234375,985.521057 825.894592,980.160645 
	C812.762817,966.978394 799.573120,953.853699 786.446472,940.666199 
	C785.167725,939.381470 784.164612,937.822327 782.623291,935.871338 
	C777.524841,940.896973 773.169312,945.148254 768.860352,949.446228 
	C759.073853,959.207520 749.347351,969.029114 739.526367,978.755554 
	C730.647949,987.548462 723.159973,987.438171 714.199890,978.495483 
	C701.584473,965.904297 688.966614,953.315430 676.408142,940.667664 
	C675.126038,939.376465 674.242493,937.689697 672.982910,935.917542 
	C669.803101,938.823975 667.476074,940.767822 665.357727,942.917358 
	C653.094177,955.361572 641.128906,968.112793 628.550781,980.228821 
	C621.554993,986.967529 612.653198,987.296692 604.665039,979.469360 
	C596.902161,971.862732 589.027222,964.367493 581.382324,956.644348 
	C574.950623,950.146729 568.778870,943.391846 562.125854,936.364075 
	C560.390808,937.934509 559.033203,939.063721 557.788025,940.305542 
	C544.462646,953.596497 531.150757,966.900940 517.845154,980.211731 
	C513.321167,984.737488 507.990753,986.445251 501.897064,984.244812 
	C499.710754,983.455322 497.609863,981.950867 495.934265,980.301147 
	C482.764435,967.334961 469.710754,954.250732 456.610870,941.213440 
	C455.106140,939.715942 453.537689,938.282532 451.242004,936.099854 
	C442.208954,945.379272 433.462585,954.414062 424.657471,963.391235 
	C419.074554,969.083313 413.473389,974.760925 407.755432,980.316406 
	C400.830872,987.044067 392.073486,986.759460 385.205322,979.859863 
	C371.691376,966.283997 358.132843,952.752380 344.579407,939.215820 
	C343.768921,938.406433 342.840729,937.714966 341.641602,936.690247 
	C335.029541,943.245605 328.549683,949.690247 322.043274,956.107849 
	C320.117279,958.007568 318.024750,959.744568 316.166473,961.705750 
	C310.078613,968.130554 304.070831,974.631042 298.018219,981.089294 
	C292.834839,986.620117 281.953857,986.524170 275.975800,980.664917 
	C265.311920,970.212769 254.757614,959.648010 244.226425,949.061707 
	C240.145035,944.958984 236.250671,940.670227 231.200958,935.335815 
	C225.065399,941.900452 219.637497,947.913757 213.984726,953.707703 
	C205.498291,962.406128 196.642197,970.752075 188.339371,979.618896 
	C180.687790,987.790161 166.855896,987.280273 162.259109,974.979309 
	C161.215424,972.186401 160.230148,969.147278 160.229050,966.221069 
	C160.136917,720.752258 160.143860,475.283356 160.159332,229.814453 
	C160.159454,227.849274 160.372375,225.884094 160.521530,223.302811 
	C158.819794,223.222855 157.099991,223.073303 155.380005,223.071533 
	C130.216583,223.045746 105.047897,222.749435 79.892944,223.205795 
	C72.346039,223.342697 64.432945,215.145447 64.444778,208.156754 
	C64.500633,175.161911 63.937771,142.152420 64.760933,109.177223 
	C65.324615,86.596680 75.806755,67.907104 92.059135,52.491009 
	C97.270126,47.548157 102.793465,42.919338 108.368294,38.385891 
	C109.789444,37.230213 111.992958,37.079426 113.769028,36.310009 
	C121.693985,32.876827 129.538681,29.251631 137.523499,25.965843 
	C142.667450,23.849089 147.932846,21.945894 153.284164,20.448753 
	C155.989182,19.691971 159.005585,20.042456 161.881744,19.904213 
	C169.028778,19.560690 176.176041,18.929846 183.323380,18.927612 
	C359.967560,18.872374 536.611755,18.864603 713.255981,18.924583 
	C725.864319,18.928864 738.253296,20.360861 750.605286,23.621958 
	C767.436951,28.065758 783.036865,35.266987 796.497253,45.667973 
	C821.965637,65.347694 839.871582,90.706886 847.955872,122.428459 
	C850.990906,134.337463 852.527100,146.360641 852.527832,158.600372 
	C852.543762,424.232941 852.541565,689.865540 852.542908,955.997437 
M191.493668,608.499695 
	C191.493668,716.323914 191.493668,824.148071 191.493668,931.972290 
	C192.135468,932.307617 192.777283,932.643005 193.419083,932.978333 
	C195.393753,930.536560 197.134354,927.850281 199.384445,925.696228 
	C208.124496,917.328857 216.896347,908.984253 225.939194,900.949463 
	C229.075165,898.163086 233.835831,898.451599 236.601456,900.828125 
	C246.326157,909.184814 255.640640,918.039795 264.819305,927.004150 
	C272.010834,934.027771 278.770813,941.493164 285.896057,948.943726 
	C288.725800,946.275757 290.574890,944.621155 292.325256,942.867859 
	C304.557953,930.615356 316.738647,918.310791 329.021545,906.109009 
	C330.959625,904.183777 333.113403,902.235596 335.540894,901.087830 
	C343.073364,897.526123 348.920288,900.709656 354.279907,906.142090 
	C367.142975,919.180176 380.258972,931.969788 393.042786,945.084045 
	C395.767151,947.878723 397.721802,947.510620 400.024658,945.229492 
	C408.478485,936.855408 416.870392,928.418884 425.311554,920.031982 
	C431.006287,914.373840 436.589966,908.587646 442.552582,903.224792 
	C444.482727,901.488831 447.366119,900.567261 449.973389,899.878357 
	C456.235931,898.223572 460.367432,902.189148 464.284912,906.082153 
	C476.102509,917.825745 487.808136,929.681946 499.587280,941.464478 
	C501.884827,943.762695 504.316528,945.926819 507.364746,948.789978 
	C512.790283,943.076843 517.731262,937.686462 522.875488,932.497620 
	C532.489502,922.799988 542.095398,913.087830 551.952515,903.640259 
	C557.690674,898.140564 565.836792,898.065186 571.365540,903.458374 
	C585.185364,916.939453 598.858215,930.574280 612.406921,944.327820 
	C615.532471,947.500671 617.831116,947.732300 620.962585,944.526794 
	C630.028748,935.246338 639.240662,926.107788 648.428406,916.946655 
	C652.785278,912.602478 657.428284,908.525391 661.560547,903.980835 
	C666.434570,898.620483 675.890686,897.555359 681.863281,903.588867 
	C691.589905,913.414673 701.532654,923.027039 711.227112,932.884033 
	C716.322632,938.064941 721.084900,943.573547 726.996338,950.023804 
	C732.782654,943.708618 737.255188,938.569336 742.004150,933.699524 
	C751.076172,924.396667 760.207520,915.146179 769.530640,906.096924 
	C772.258911,903.448914 775.475769,900.241211 778.897400,899.608459 
	C784.700378,898.535461 789.957336,900.992065 794.260315,905.624634 
	C801.170837,913.064514 808.500366,920.117249 815.715210,927.270630 
	C817.450745,928.991394 819.431396,930.464966 822.038757,932.680603 
	C822.038757,929.314148 822.038818,927.019714 822.038757,924.725281 
	C822.036438,842.231140 822.036560,759.736938 822.031128,677.242798 
	C822.019714,503.255035 822.100403,329.267120 821.761658,155.279984 
	C821.740845,144.584778 819.911072,133.358582 816.334961,123.299530 
	C802.610107,84.693916 776.445129,59.540634 735.011902,52.350430 
	C727.709961,51.083267 720.339722,49.303894 712.999451,49.296734 
	C540.844971,49.128864 368.690277,49.189877 196.535706,49.078434 
	C192.122421,49.075581 191.403351,50.586288 191.405319,54.538158 
	C191.497192,238.858627 191.489655,423.179138 191.493668,608.499695 
M94.974182,141.500000 
	C94.976318,157.153229 95.056877,172.807129 94.919716,188.459137 
	C94.889366,191.922852 95.946884,193.150421 99.499336,193.011826 
	C106.150269,192.752365 112.818367,192.931351 119.479324,192.930801 
	C133.099396,192.929688 146.719482,192.930466 160.013199,192.930466 
	C160.013199,145.561493 160.013199,98.605591 160.013199,51.455807 
	C158.710037,51.574585 158.043884,51.562176 157.412216,51.703701 
	C145.354416,54.405270 134.265732,59.087730 123.838982,65.946533 
	C105.995491,77.684120 94.938370,92.971733 94.982750,115.021820 
	C94.999840,123.514503 94.978271,132.007278 94.974182,141.500000 
z"/>
<path fill="#020202" opacity="1.000000" stroke="none" 
	d="
M191.493607,607.999634 
	C191.489655,423.179138 191.497192,238.858627 191.405319,54.538158 
	C191.403351,50.586288 192.122421,49.075581 196.535706,49.078434 
	C368.690277,49.189877 540.844971,49.128864 712.999451,49.296734 
	C720.339722,49.303894 727.709961,51.083267 735.011902,52.350430 
	C776.445129,59.540634 802.610107,84.693916 816.334961,123.299530 
	C819.911072,133.358582 821.740845,144.584778 821.761658,155.279984 
	C822.100403,329.267120 822.019714,503.255035 822.031128,677.242798 
	C822.036560,759.736938 822.036438,842.231140 822.038757,924.725281 
	C822.038818,927.019714 822.038757,929.314148 822.038757,932.680603 
	C819.431396,930.464966 817.450745,928.991394 815.715210,927.270630 
	C808.500366,920.117249 801.170837,913.064514 794.260315,905.624634 
	C789.957336,900.992065 784.700378,898.535461 778.897400,899.608459 
	C775.475769,900.241211 772.258911,903.448914 769.530640,906.096924 
	C760.207520,915.146179 751.076172,924.396667 742.004150,933.699524 
	C737.255188,938.569336 732.782654,943.708618 726.996338,950.023804 
	C721.084900,943.573547 716.322632,938.064941 711.227112,932.884033 
	C701.532654,923.027039 691.589905,913.414673 681.863281,903.588867 
	C675.890686,897.555359 666.434570,898.620483 661.560547,903.980835 
	C657.428284,908.525391 652.785278,912.602478 648.428406,916.946655 
	C639.240662,926.107788 630.028748,935.246338 620.962585,944.526794 
	C617.831116,947.732300 615.532471,947.500671 612.406921,944.327820 
	C598.858215,930.574280 585.185364,916.939453 571.365540,903.458374 
	C565.836792,898.065186 557.690674,898.140564 551.952515,903.640259 
	C542.095398,913.087830 532.489502,922.799988 522.875488,932.497620 
	C517.731262,937.686462 512.790283,943.076843 507.364746,948.789978 
	C504.316528,945.926819 501.884827,943.762695 499.587280,941.464478 
	C487.808136,929.681946 476.102509,917.825745 464.284912,906.082153 
	C460.367432,902.189148 456.235931,898.223572 449.973389,899.878357 
	C447.366119,900.567261 444.482727,901.488831 442.552582,903.224792 
	C436.589966,908.587646 431.006287,914.373840 425.311554,920.031982 
	C416.870392,928.418884 408.478485,936.855408 400.024658,945.229492 
	C397.721802,947.510620 395.767151,947.878723 393.042786,945.084045 
	C380.258972,931.969788 367.142975,919.180176 354.279907,906.142090 
	C348.920288,900.709656 343.073364,897.526123 335.540894,901.087830 
	C333.113403,902.235596 330.959625,904.183777 329.021545,906.109009 
	C316.738647,918.310791 304.557953,930.615356 292.325256,942.867859 
	C290.574890,944.621155 288.725800,946.275757 285.896057,948.943726 
	C278.770813,941.493164 272.010834,934.027771 264.819305,927.004150 
	C255.640640,918.039795 246.326157,909.184814 236.601456,900.828125 
	C233.835831,898.451599 229.075165,898.163086 225.939194,900.949463 
	C216.896347,908.984253 208.124496,917.328857 199.384445,925.696228 
	C197.134354,927.850281 195.393753,930.536560 193.419083,932.978333 
	C192.777283,932.643005 192.135468,932.307617 191.493668,931.972290 
	C191.493668,824.148071 191.493668,716.323914 191.493607,607.999634 
M724.781555,373.048492 
	C727.261780,372.766296 730.419678,374.229614 732.254883,370.454193 
	C738.459290,367.669006 741.575012,362.780029 741.288940,356.079895 
	C741.008972,349.523804 737.563538,344.983978 730.965271,342.028809 
	C728.415161,341.361511 725.865417,340.111938 723.314880,340.110291 
	C579.524109,340.016449 435.733246,340.026306 291.942383,340.028900 
	C289.943390,340.028931 287.911865,339.869141 285.962189,340.189484 
	C285.234680,340.309021 284.698212,341.590973 283.435730,342.382812 
	C283.031494,342.518951 282.627258,342.655090 281.598938,342.454315 
	C280.593658,343.164551 279.588409,343.874786 277.996124,344.920593 
	C276.310181,347.610321 274.624237,350.300049 272.212738,353.160950 
	C270.446381,355.995819 270.133392,358.671112 273.119934,361.693329 
	C274.915710,365.999084 277.493439,369.491486 282.595856,371.276184 
	C284.073303,371.567474 285.550781,371.858765 287.945587,371.962341 
	C383.725006,371.946594 479.504608,371.827332 575.283813,371.957855 
	C624.839783,372.025391 674.395203,372.535828 724.781555,373.048492 
M725.830383,235.340576 
	C724.034485,234.895386 722.238708,234.061142 720.442627,234.060379 
	C577.530396,233.999969 434.618164,234.004501 291.705933,234.008118 
	C290.375000,234.008163 288.978241,233.829025 287.738831,234.180191 
	C287.040497,234.378036 286.601379,235.490829 285.268799,236.465439 
	C278.469727,236.314087 275.661774,241.350647 273.295502,246.326126 
	C272.194550,248.641037 271.913666,251.865356 272.512024,254.379745 
	C275.204956,265.695557 284.318939,267.254028 293.850372,267.258362 
	C436.574615,267.323242 579.298889,267.311401 722.023132,267.257141 
	C724.615906,267.256165 727.248230,266.685638 729.793823,266.089233 
	C738.562134,264.034973 741.987488,256.616577 741.348389,250.515869 
	C740.457581,242.012299 733.972534,236.211075 725.830383,235.340576 
M720.826294,588.352722 
	C721.882446,587.053284 724.022827,585.540894 723.816345,584.489380 
	C722.603516,578.312927 721.533997,571.956604 719.136414,566.193237 
	C712.215332,549.556091 699.408752,539.272156 681.908203,534.247803 
	C681.908203,529.548035 681.908203,524.942688 681.908203,520.526062 
	C681.245544,520.201843 680.958130,519.940308 680.667847,519.937012 
	C674.342346,519.865417 668.016602,519.793396 661.690796,519.780762 
	C651.546326,519.760498 651.381836,519.780823 651.511108,529.690125 
	C651.563171,533.679443 649.905090,535.726562 646.334290,536.858459 
	C640.640320,538.663391 635.631226,541.791748 631.287170,545.790039 
	C617.391235,558.579834 611.953918,575.191895 611.650757,593.401794 
	C611.543091,599.868835 612.417725,606.792786 615.288391,613.045349 
	C617.556824,617.986084 619.208679,623.269592 621.941895,627.927002 
	C633.689270,647.944580 651.992615,661.974548 668.366577,677.717102 
	C677.957581,686.938354 687.168762,696.063416 689.467346,710.007568 
	C691.740845,723.799438 685.668762,736.600342 674.367004,740.366272 
	C668.064514,742.466370 661.216431,742.270020 656.338013,737.847778 
	C651.245422,733.231567 646.494019,727.742249 645.291321,720.278809 
	C644.522766,715.508972 643.327026,710.808105 642.236023,705.666992 
	C630.902649,706.467590 620.015320,707.236694 608.719849,708.034607 
	C608.669434,721.740356 612.352234,734.059814 618.429321,745.608887 
	C625.627563,759.288574 636.747864,768.580444 651.414368,772.584961 
	C651.414368,777.025146 651.553528,780.983337 651.375305,784.927246 
	C651.196106,788.891357 652.689758,790.772034 656.830933,790.587463 
	C660.987183,790.402222 665.158264,790.547729 669.322815,790.549622 
	C682.026367,790.555420 682.150818,790.555054 682.087952,777.669373 
	C682.071838,774.367981 683.134949,773.061584 686.289551,772.296875 
	C711.822327,766.107544 721.244751,748.135071 725.022217,729.171082 
	C727.977905,714.332458 725.401184,699.539673 718.346436,685.701599 
	C710.142456,669.609314 698.792236,656.205811 685.033264,644.687561 
	C672.302856,634.030396 659.210144,623.785706 652.620422,607.631897 
	C648.358215,597.183655 647.464722,587.038025 651.961853,576.456970 
	C657.393188,563.677551 674.347595,560.909790 682.165588,572.313232 
	C686.340210,578.402344 688.386902,585.950256 691.775024,593.712952 
	C700.380066,592.117798 710.179199,590.301331 720.826294,588.352722 
M671.500000,477.103607 
	C689.499084,477.100372 707.501770,476.882202 725.495789,477.181549 
	C734.958923,477.338959 741.721741,468.757996 741.384644,461.541290 
	C740.966431,452.588104 734.309082,446.881561 723.718689,446.881134 
	C588.727112,446.875732 453.735504,446.875244 318.743927,446.875336 
	C308.244598,446.875336 297.745239,446.904175 287.245941,446.891052 
	C280.955841,446.883209 276.827850,450.140045 273.640717,455.297211 
	C270.184448,460.889832 271.703369,465.850555 275.098694,470.614532 
	C276.312012,472.316833 277.819092,474.525909 279.583679,474.979187 
	C284.113190,476.142700 288.861725,477.016357 293.523499,477.020233 
	C419.182251,477.123901 544.841125,477.103363 671.500000,477.103607 
M477.500214,762.537415 
	C416.040863,762.538269 354.581543,762.537537 293.122192,762.545654 
	C290.458252,762.546021 287.776733,762.449036 285.133789,762.707703 
	C277.904724,763.415405 269.604431,773.759583 271.532227,779.499084 
	C274.640503,788.753296 280.391418,792.757141 290.410065,792.759521 
	C368.690643,792.778015 446.971191,792.828308 525.251709,792.769470 
	C528.151428,792.767273 531.317688,792.306885 533.898071,791.085083 
	C540.836426,787.800110 544.000977,780.731934 542.277039,773.697083 
	C540.730530,767.386230 534.673340,762.629089 527.466736,762.574829 
	C511.145416,762.452026 494.822510,762.536804 477.500214,762.537415 
M498.397064,679.779358 
	C503.997803,669.544861 497.723785,656.539978 482.667389,656.479248 
	C418.540344,656.220642 354.411407,656.299011 290.284149,656.536133 
	C286.278717,656.550903 281.261749,657.915344 278.540131,660.542297 
	C275.148773,663.815735 271.343292,669.338623 271.841278,673.382202 
	C272.760162,680.843140 278.694031,688.022156 288.957397,688.012573 
	C353.751709,687.952271 418.546173,687.937561 483.340393,688.026917 
	C489.756287,688.035767 494.366821,685.326172 498.397064,679.779358 
M307.500000,551.930969 
	C300.007446,551.969543 292.511749,551.886780 285.023346,552.083496 
	C278.516357,552.254395 269.811249,563.056030 271.436829,568.679443 
	C274.130859,577.999084 279.750427,582.157288 289.742706,582.161194 
	C322.216156,582.173828 354.689606,582.181824 387.163055,582.169067 
	C397.252106,582.165100 403.928101,576.078491 403.860352,567.034241 
	C403.794403,558.236694 396.927979,551.907227 387.435394,551.908936 
	C361.123596,551.913696 334.811798,551.923889 307.500000,551.930969 
M477.658661,185.569168 
	C480.467529,186.210022 483.024384,185.285919 485.398102,184.024994 
	C494.352905,179.268082 497.171173,167.986374 491.604401,159.559616 
	C486.642883,152.048935 475.528290,149.687805 468.177063,154.582748 
	C460.621063,159.614029 458.954254,171.555206 464.802582,178.919739 
	C465.727570,180.084488 466.783905,181.144073 467.742523,182.283386 
	C468.084717,182.690079 468.317352,183.188980 468.599976,183.645828 
	C468.687592,183.541397 468.847137,183.341965 468.852539,183.346039 
	C469.297424,183.682938 469.685699,184.248703 470.171814,184.350662 
	C472.395630,184.817032 474.646667,185.153702 477.658661,185.569168 
M317.795288,179.291580 
	C325.104889,169.689331 320.620667,160.035736 314.830017,155.628433 
	C308.867828,151.090546 302.520447,150.937683 296.250946,154.793762 
	C289.837769,158.738235 287.382507,164.664581 288.456024,172.126587 
	C289.129608,176.808777 297.782013,187.109085 301.459229,186.360123 
	C307.049164,185.221603 313.586029,185.688339 317.795288,179.291580 
M360.970764,185.476501 
	C367.351440,186.980530 371.619812,183.407669 375.434387,179.191956 
	C380.052063,174.088730 380.419250,165.851578 376.605042,159.642670 
	C373.870636,155.191605 363.553619,150.173172 359.376282,151.823441 
	C346.122498,157.059387 340.843140,168.921280 351.127960,181.606171 
	C352.959137,183.864670 357.120209,184.234085 360.970764,185.476501 
M657.858521,184.054260 
	C665.574524,181.150314 668.528809,171.569427 667.079651,165.142731 
	C665.684570,158.955917 659.544006,152.754257 653.493958,151.970840 
	C647.021179,151.132675 639.363647,155.282898 636.094788,161.400757 
	C632.878967,167.419159 634.057312,174.970444 639.041626,180.285736 
	C644.149353,185.732620 650.478943,187.122192 657.858521,184.054260 
M697.039734,181.516754 
	C698.317871,182.185486 699.558838,182.940796 700.880127,183.509262 
	C711.141418,187.923981 716.672852,186.244553 722.969116,177.083160 
	C727.809875,170.039688 725.376038,160.499817 718.180908,155.212418 
	C711.146057,150.042694 700.017212,152.489914 696.508789,157.532776 
	C690.719055,165.854736 689.530762,170.140472 697.039734,181.516754 
M540.946899,184.639191 
	C549.413330,182.470062 554.790649,171.232025 551.173523,162.805130 
	C547.461731,154.157593 537.944214,149.558716 528.485352,153.768417 
	C520.002014,157.543961 516.221191,168.545074 521.269226,176.624420 
	C523.570068,180.306870 527.550476,183.397430 531.456543,185.445190 
	C533.746704,186.645813 537.389465,185.266251 540.946899,184.639191 
M592.902710,152.302078 
	C585.348572,151.663254 577.545715,158.897797 576.828003,167.440781 
	C576.197388,174.946609 579.405151,181.198151 588.696594,185.312485 
	C592.153809,186.843353 602.781250,184.443756 605.095520,181.306091 
	C609.185547,175.760864 611.529114,169.677490 608.695374,162.741409 
	C605.960815,156.048264 600.743164,152.815979 592.902710,152.302078 
M425.256744,153.116180 
	C424.610413,152.956406 423.964661,152.794205 423.317657,152.637222 
	C415.011932,150.622131 407.674683,156.480469 405.186035,161.718735 
	C402.025818,168.370499 403.841858,175.734528 409.187286,181.353104 
	C413.136230,185.503860 418.329102,185.091888 423.034088,186.233368 
	C424.542236,186.599274 426.708801,184.271088 428.568298,183.165649 
	C434.449585,179.669296 437.081757,174.364304 436.588165,167.685883 
	C436.079865,160.808243 432.725525,155.770584 425.256744,153.116180 
z"/>
<path fill="#040404" opacity="1.000000" stroke="none" 
	d="
M94.974243,141.000000 
	C94.978271,132.007278 94.999840,123.514503 94.982750,115.021820 
	C94.938370,92.971733 105.995491,77.684120 123.838982,65.946533 
	C134.265732,59.087730 145.354416,54.405270 157.412216,51.703701 
	C158.043884,51.562176 158.710037,51.574585 160.013199,51.455807 
	C160.013199,98.605591 160.013199,145.561493 160.013199,192.930466 
	C146.719482,192.930466 133.099396,192.929688 119.479324,192.930801 
	C112.818367,192.931351 106.150269,192.752365 99.499336,193.011826 
	C95.946884,193.150421 94.889366,191.922852 94.919716,188.459137 
	C95.056877,172.807129 94.976318,157.153229 94.974243,141.000000 
z"/>
<path fill="#FAFAFA" opacity="1.000000" stroke="none" 
	d="
M720.402283,588.418762 
	C710.179199,590.301331 700.380066,592.117798 691.775024,593.712952 
	C688.386902,585.950256 686.340210,578.402344 682.165588,572.313232 
	C674.347595,560.909790 657.393188,563.677551 651.961853,576.456970 
	C647.464722,587.038025 648.358215,597.183655 652.620422,607.631897 
	C659.210144,623.785706 672.302856,634.030396 685.033264,644.687561 
	C698.792236,656.205811 710.142456,669.609314 718.346436,685.701599 
	C725.401184,699.539673 727.977905,714.332458 725.022217,729.171082 
	C721.244751,748.135071 711.822327,766.107544 686.289551,772.296875 
	C683.134949,773.061584 682.071838,774.367981 682.087952,777.669373 
	C682.150818,790.555054 682.026367,790.555420 669.322815,790.549622 
	C665.158264,790.547729 660.987183,790.402222 656.830933,790.587463 
	C652.689758,790.772034 651.196106,788.891357 651.375305,784.927246 
	C651.553528,780.983337 651.414368,777.025146 651.414368,772.584961 
	C636.747864,768.580444 625.627563,759.288574 618.429321,745.608887 
	C612.352234,734.059814 608.669434,721.740356 608.719849,708.034607 
	C620.015320,707.236694 630.902649,706.467590 642.236023,705.666992 
	C643.327026,710.808105 644.522766,715.508972 645.291321,720.278809 
	C646.494019,727.742249 651.245422,733.231567 656.338013,737.847778 
	C661.216431,742.270020 668.064514,742.466370 674.367004,740.366272 
	C685.668762,736.600342 691.740845,723.799438 689.467346,710.007568 
	C687.168762,696.063416 677.957581,686.938354 668.366577,677.717102 
	C651.992615,661.974548 633.689270,647.944580 621.941895,627.927002 
	C619.208679,623.269592 617.556824,617.986084 615.288391,613.045349 
	C612.417725,606.792786 611.543091,599.868835 611.650757,593.401794 
	C611.953918,575.191895 617.391235,558.579834 631.287170,545.790039 
	C635.631226,541.791748 640.640320,538.663391 646.334290,536.858459 
	C649.905090,535.726562 651.563171,533.679443 651.511108,529.690125 
	C651.381836,519.780823 651.546326,519.760498 661.690796,519.780762 
	C668.016602,519.793396 674.342346,519.865417 680.667847,519.937012 
	C680.958130,519.940308 681.245544,520.201843 681.908203,520.526062 
	C681.908203,524.942688 681.908203,529.548035 681.908203,534.247803 
	C699.408752,539.272156 712.215332,549.556091 719.136414,566.193237 
	C721.533997,571.956604 722.603516,578.312927 723.816345,584.489380 
	C724.022827,585.540894 721.882446,587.053284 720.402283,588.418762 
z"/>
<path fill="#FAFAFA" opacity="1.000000" stroke="none" 
	d="
M725.961365,236.163635 
	C733.972534,236.211075 740.457581,242.012299 741.348389,250.515869 
	C741.987488,256.616577 738.562134,264.034973 729.793823,266.089233 
	C727.248230,266.685638 724.615906,267.256165 722.023132,267.257141 
	C579.298889,267.311401 436.574615,267.323242 293.850372,267.258362 
	C284.318939,267.254028 275.204956,265.695557 272.512024,254.379745 
	C271.913666,251.865356 272.194550,248.641037 273.295502,246.326126 
	C275.661774,241.350647 278.469727,236.314087 286.106354,236.462891 
	C432.299713,236.473938 577.655518,236.488190 723.011292,236.487167 
	C723.994629,236.487152 724.978027,236.276138 725.961365,236.163635 
z"/>
<path fill="#FAFAFA" opacity="1.000000" stroke="none" 
	d="
M671.000000,477.103699 
	C544.841125,477.103363 419.182251,477.123901 293.523499,477.020233 
	C288.861725,477.016357 284.113190,476.142700 279.583679,474.979187 
	C277.819092,474.525909 276.312012,472.316833 275.098694,470.614532 
	C271.703369,465.850555 270.184448,460.889832 273.640717,455.297211 
	C276.827850,450.140045 280.955841,446.883209 287.245941,446.891052 
	C297.745239,446.904175 308.244598,446.875336 318.743927,446.875336 
	C453.735504,446.875244 588.727112,446.875732 723.718689,446.881134 
	C734.309082,446.881561 740.966431,452.588104 741.384644,461.541290 
	C741.721741,468.757996 734.958923,477.338959 725.495789,477.181549 
	C707.501770,476.882202 689.499084,477.100372 671.000000,477.103699 
z"/>
<path fill="#FFFFFF" opacity="1.000000" stroke="none" 
	d="
M282.223022,342.791229 
	C282.627258,342.655090 283.031494,342.518951 284.072693,342.614838 
	C430.590668,342.858521 576.471680,342.871124 722.352661,342.875153 
	C725.336304,342.875214 728.320007,342.775330 731.303650,342.722076 
	C737.563538,344.983978 741.008972,349.523804 741.288940,356.079895 
	C741.575012,362.780029 738.459290,367.669006 731.498535,370.293823 
	C728.478394,371.037659 726.214661,371.941895 723.950867,372.846130 
	C674.395203,372.535828 624.839783,372.025391 575.283813,371.957855 
	C479.504608,371.827332 383.725006,371.946594 287.350037,371.681213 
	C285.294037,371.129913 283.833588,370.859711 282.373138,370.589539 
	C277.493439,369.491486 274.915710,365.999084 273.322571,361.116699 
	C273.329590,358.023285 273.133942,355.506531 272.938293,352.989777 
	C274.624237,350.300049 276.310181,347.610321 278.589050,344.879272 
	C280.195648,344.155731 281.209320,343.473480 282.223022,342.791229 
z"/>
<path fill="#F9F9F9" opacity="1.000000" stroke="none" 
	d="
M478.000244,762.537292 
	C494.822510,762.536804 511.145416,762.452026 527.466736,762.574829 
	C534.673340,762.629089 540.730530,767.386230 542.277039,773.697083 
	C544.000977,780.731934 540.836426,787.800110 533.898071,791.085083 
	C531.317688,792.306885 528.151428,792.767273 525.251709,792.769470 
	C446.971191,792.828308 368.690643,792.778015 290.410065,792.759521 
	C280.391418,792.757141 274.640503,788.753296 271.532227,779.499084 
	C269.604431,773.759583 277.904724,763.415405 285.133789,762.707703 
	C287.776733,762.449036 290.458252,762.546021 293.122192,762.545654 
	C354.581543,762.537537 416.040863,762.538269 478.000244,762.537292 
z"/>
<path fill="#F6F6F6" opacity="1.000000" stroke="none" 
	d="
M498.223267,680.105774 
	C494.366821,685.326172 489.756287,688.035767 483.340393,688.026917 
	C418.546173,687.937561 353.751709,687.952271 288.957397,688.012573 
	C278.694031,688.022156 272.760162,680.843140 271.841278,673.382202 
	C271.343292,669.338623 275.148773,663.815735 278.540131,660.542297 
	C281.261749,657.915344 286.278717,656.550903 290.284149,656.536133 
	C354.411407,656.299011 418.540344,656.220642 482.667389,656.479248 
	C497.723785,656.539978 503.997803,669.544861 498.223267,680.105774 
z"/>
<path fill="#FAFAFA" opacity="1.000000" stroke="none" 
	d="
M308.000000,551.931396 
	C334.811798,551.923889 361.123596,551.913696 387.435394,551.908936 
	C396.927979,551.907227 403.794403,558.236694 403.860352,567.034241 
	C403.928101,576.078491 397.252106,582.165100 387.163055,582.169067 
	C354.689606,582.181824 322.216156,582.173828 289.742706,582.161194 
	C279.750427,582.157288 274.130859,577.999084 271.436829,568.679443 
	C269.811249,563.056030 278.516357,552.254395 285.023346,552.083496 
	C292.511749,551.886780 300.007446,551.969543 308.000000,551.931396 
z"/>
<path fill="#A9A9A9" opacity="1.000000" stroke="none" 
	d="
M731.134460,342.375427 
	C728.320007,342.775330 725.336304,342.875214 722.352661,342.875153 
	C576.471680,342.871124 430.590668,342.858521 284.392151,342.594910 
	C284.698212,341.590973 285.234680,340.309021 285.962189,340.189484 
	C287.911865,339.869141 289.943390,340.028931 291.942383,340.028900 
	C435.733246,340.026306 579.524109,340.016449 723.314880,340.110291 
	C725.865417,340.111938 728.415161,341.361511 731.134460,342.375427 
z"/>
<path fill="#F4F4F4" opacity="1.000000" stroke="none" 
	d="
M477.273285,185.553055 
	C474.646667,185.153702 472.395630,184.817032 470.171814,184.350662 
	C469.685699,184.248703 469.297424,183.682938 468.852539,183.346039 
	C468.847137,183.341965 468.687592,183.541397 468.599976,183.645813 
	C468.317352,183.188980 468.084717,182.690079 467.742523,182.283386 
	C466.783905,181.144073 465.727570,180.084488 464.802582,178.919739 
	C458.954254,171.555206 460.621063,159.614029 468.177063,154.582748 
	C475.528290,149.687805 486.642883,152.048935 491.604401,159.559616 
	C497.171173,167.986374 494.352905,179.268082 485.398102,184.024994 
	C483.024384,185.285919 480.467529,186.210022 477.273285,185.553055 
z"/>
<path fill="#F5F5F5" opacity="1.000000" stroke="none" 
	d="
M317.575470,179.576996 
	C313.586029,185.688339 307.049164,185.221603 301.459229,186.360123 
	C297.782013,187.109085 289.129608,176.808777 288.456024,172.126587 
	C287.382507,164.664581 289.837769,158.738235 296.250946,154.793762 
	C302.520447,150.937683 308.867828,151.090546 314.830017,155.628433 
	C320.620667,160.035736 325.104889,169.689331 317.575470,179.576996 
z"/>
<path fill="#F5F5F5" opacity="1.000000" stroke="none" 
	d="
M360.588135,185.476151 
	C357.120209,184.234085 352.959137,183.864670 351.127960,181.606171 
	C340.843140,168.921280 346.122498,157.059387 359.376282,151.823441 
	C363.553619,150.173172 373.870636,155.191605 376.605042,159.642670 
	C380.419250,165.851578 380.052063,174.088730 375.434387,179.191956 
	C371.619812,183.407669 367.351440,186.980530 360.588135,185.476151 
z"/>
<path fill="#F5F5F5" opacity="1.000000" stroke="none" 
	d="
M657.528809,184.163086 
	C650.478943,187.122192 644.149353,185.732620 639.041626,180.285736 
	C634.057312,174.970444 632.878967,167.419159 636.094788,161.400757 
	C639.363647,155.282898 647.021179,151.132675 653.493958,151.970840 
	C659.544006,152.754257 665.684570,158.955917 667.079651,165.142731 
	C668.528809,171.569427 665.574524,181.150314 657.528809,184.163086 
z"/>
<path fill="#F6F6F6" opacity="1.000000" stroke="none" 
	d="
M696.928955,181.165955 
	C689.530762,170.140472 690.719055,165.854736 696.508789,157.532776 
	C700.017212,152.489914 711.146057,150.042694 718.180908,155.212418 
	C725.376038,160.499817 727.809875,170.039688 722.969116,177.083160 
	C716.672852,186.244553 711.141418,187.923981 700.880127,183.509262 
	C699.558838,182.940796 698.317871,182.185486 696.928955,181.165955 
z"/>
<path fill="#F5F5F5" opacity="1.000000" stroke="none" 
	d="
M540.685364,184.843262 
	C537.389465,185.266251 533.746704,186.645813 531.456543,185.445190 
	C527.550476,183.397430 523.570068,180.306870 521.269226,176.624420 
	C516.221191,168.545074 520.002014,157.543961 528.485352,153.768417 
	C537.944214,149.558716 547.461731,154.157593 551.173523,162.805130 
	C554.790649,171.232025 549.413330,182.470062 540.685364,184.843262 
z"/>
<path fill="#F5F5F5" opacity="1.000000" stroke="none" 
	d="
M593.289856,152.298660 
	C600.743164,152.815979 605.960815,156.048264 608.695374,162.741409 
	C611.529114,169.677490 609.185547,175.760864 605.095520,181.306091 
	C602.781250,184.443756 592.153809,186.843353 588.696594,185.312485 
	C579.405151,181.198151 576.197388,174.946609 576.828003,167.440781 
	C577.545715,158.897797 585.348572,151.663254 593.289856,152.298660 
z"/>
<path fill="#F6F6F6" opacity="1.000000" stroke="none" 
	d="
M425.621277,153.246460 
	C432.725525,155.770584 436.079865,160.808243 436.588165,167.685883 
	C437.081757,174.364304 434.449585,179.669296 428.568298,183.165649 
	C426.708801,184.271088 424.542236,186.599274 423.034088,186.233368 
	C418.329102,185.091888 413.136230,185.503860 409.187286,181.353104 
	C403.841858,175.734528 402.025818,168.370499 405.186035,161.718735 
	C407.674683,156.480469 415.011932,150.622131 423.317657,152.637222 
	C423.964661,152.794205 424.610413,152.956406 425.621277,153.246460 
z"/>
<path fill="#222222" opacity="1.000000" stroke="none" 
	d="
M725.895874,235.752106 
	C724.978027,236.276138 723.994629,236.487152 723.011292,236.487167 
	C577.655518,236.488190 432.299713,236.473938 286.494720,236.325912 
	C286.601379,235.490829 287.040497,234.378036 287.738831,234.180191 
	C288.978241,233.829025 290.375000,234.008163 291.705933,234.008118 
	C434.618164,234.004501 577.530396,233.999969 720.442627,234.060379 
	C722.238708,234.061142 724.034485,234.895386 725.895874,235.752106 
z"/>
<path fill="#A9A9A9" opacity="1.000000" stroke="none" 
	d="
M272.575500,353.075378 
	C273.133942,355.506531 273.329590,358.023285 273.298706,360.764709 
	C270.133392,358.671112 270.446381,355.995819 272.575500,353.075378 
z"/>
<path fill="#C2C2C2" opacity="1.000000" stroke="none" 
	d="
M724.366211,372.947327 
	C726.214661,371.941895 728.478394,371.037659 731.137573,370.280273 
	C730.419678,374.229614 727.261780,372.766296 724.366211,372.947327 
z"/>
<path fill="#C2C2C2" opacity="1.000000" stroke="none" 
	d="
M282.484497,370.932861 
	C283.833588,370.859711 285.294037,371.129913 286.891357,371.775085 
	C285.550781,371.858765 284.073303,371.567474 282.484497,370.932861 
z"/>
<path fill="#A9A9A9" opacity="1.000000" stroke="none" 
	d="
M281.910950,342.622772 
	C281.209320,343.473480 280.195648,344.155731 278.882568,344.711487 
	C279.588409,343.874786 280.593658,343.164551 281.910950,342.622772 
z"/>
</svg>