<svg id="_Layer_" data-name="&amp;lt;Layer&amp;gt;" xmlns="http://www.w3.org/2000/svg" viewBox="0 0 794.07 364.2"><defs><style>.cls-1{fill:#f19021}.cls-2{fill:#fff}</style></defs><title>Artboard 2</title><path class="cls-1" d="M683 141.89c-39.42 2.45-21.72 53.79 21.86 51.08 42.63-2.65 20.14-53.69-21.86-51.08z"/><path class="cls-1" d="M666.36 110.18a127 127 0 1 0 127 127 127 127 0 0 0-127-127zm0 240.69A113.66 113.66 0 1 1 780 237.21a113.66 113.66 0 0 1-113.64 113.66zM662.53 21.52c-30.15 22.79-24.91 57.74-24.91 57.74S618.67 30.07 594.06 0c-3.32 38.71 8.81 90 8.81 90s-15.41-31.8-53.17-33.58c31.32 18 43.47 50.43 46.25 59.13a126.23 126.23 0 0 1 61.93-18.74c-2.47-8.1-11.25-42.23 4.65-75.29z"/><path class="cls-2" d="M11.06 249.63v26.58H0v-68.48h23.28q11.84 0 17.8 5.63t6 15.42q0 9.71-6.11 15.28t-17.65 5.57zm24.73-20.85q0-5.82-3.25-8.88t-10.42-3.05H11.06v23.76h11.06q13.66 0 13.67-11.83zM92.73 276.21l-17.07-27.35H67.8v27.35H56.74v-68.48H80.9q11.73 0 17.8 5.72t6.06 15.14q0 8-4.51 13.19t-13 6.59l18 27.84zM67.8 241H80q13.4 0 13.39-11.83 0-5.62-3.25-8.78c-2.17-2.1-5.54-3.15-10.14-3.15H67.8zM155.59 261.37h-28.91l-5.24 14.84h-11.83l25.22-67.41h12.71l25.12 67.41h-11.84zm-3.11-8.53l-11.35-32-11.35 32zM228.53 213.16a28.33 28.33 0 0 1 10.77 16.4h-11.64a18.58 18.58 0 0 0-7.33-8.83 21.7 21.7 0 0 0-12.07-3.3 22.16 22.16 0 0 0-11.5 3 20.69 20.69 0 0 0-7.95 8.53A27.91 27.91 0 0 0 186 242a29 29 0 0 0 2.91 13.49 20.21 20.21 0 0 0 8.19 8.58 24.76 24.76 0 0 0 12.27 3 21.62 21.62 0 0 0 14.63-5.36q6.1-5.28 7.37-14.5h-25.15v-8.15h34.43v10.57a32.75 32.75 0 0 1-5.38 13.73 30.75 30.75 0 0 1-11.15 9.85 33.38 33.38 0 0 1-15.86 3.68 34.41 34.41 0 0 1-17.66-4.46 30.45 30.45 0 0 1-11.83-12.37 41.32 41.32 0 0 1 0-36.18 30.33 30.33 0 0 1 11.78-12.32 34.52 34.52 0 0 1 17.61-4.41q12.23 0 20.37 6.01zM318.74 208.8v67.41h-11.16v-50.53l-19.49 50.53h-9.7l-19.6-50.53v50.53h-11.05V208.8h13.38l22.31 53.83 21.92-53.83zM372.86 261.37H344l-5.24 14.84h-11.87l25.22-67.41h12.7l25.13 67.41H378.1zm-3.1-8.53l-11.35-32-11.35 32zM437.27 207.73v8.92h-19.11v59.56H407v-59.56h-19v-8.92zM454.24 207.73v68.48h-11.05v-68.48zM516.81 213.45a31.3 31.3 0 0 1 11.25 17.37h-11.74a20.81 20.81 0 0 0-7.71-9.85 22.32 22.32 0 0 0-12.95-3.64 20.17 20.17 0 0 0-10.91 3 20.81 20.81 0 0 0-7.57 8.58 32 32 0 0 0 0 26 20.78 20.78 0 0 0 7.57 8.59 20.16 20.16 0 0 0 10.91 3 22.32 22.32 0 0 0 12.95-3.63 20.88 20.88 0 0 0 7.71-9.75h11.74a31 31 0 0 1-11.25 17.31q-8.34 6.36-20.95 6.36a33.13 33.13 0 0 1-17.17-4.42 29.84 29.84 0 0 1-11.54-12.32 42.14 42.14 0 0 1 0-36.18 30.21 30.21 0 0 1 11.54-12.37 32.87 32.87 0 0 1 17.17-4.46q12.6.01 20.95 6.41zM580.23 249.63v26.58h-11.05v-68.48h23.28q11.82 0 17.8 5.63t6 15.42q0 9.71-6.11 15.28t-17.65 5.57zM605 228.78q0-5.82-3.25-8.88t-10.43-3.05h-11.09v23.76h11.06q13.71 0 13.71-11.83zM635.23 267.58h23.67v8.63h-34.73v-68.48h11.06zM709.53 261.37h-28.9l-5.24 14.84h-11.84l25.23-67.41h12.7l25.13 67.41h-11.84zm-3.1-8.53l-11.35-32-11.35 32zM771 207.73l-22.79 43.55v24.93h-11.13v-24.93l-22.89-43.55H727l15.72 31.72 15.71-31.72z"/></svg>